  <svg id="club-logo" viewBox="162.48 165.71 758.68 488.28" xmlns="http://www.w3.org/2000/svg">
    <defs>
      <style>
        .st0 {
          fill: #43A047;
        }

        .st1 {
          fill: #f0f0f0;
        }
      </style>
    </defs>
    <path class="st0"
      d="M373.41,276.61c.23-.44.37-.92.45-1.42-2.26,2.03-5.97,5.49-11.96,11.34,0,0-.08.06-.18.14-1.55,1.74-3.02,3.08-3.02,3.08-8.21,9.36-12.62,20.33-15.07,29.55,3.02-7.65,7.1-15.48,10.94-20.91,9.43-13.31,17.19-18.69,18.84-21.8ZM383.72,311.53c3.36.6,10.16-4.3,10.83-13.09.5-6.59-2.49-12.89-5.2-14.12-2.72-1.23-6.31,3.62-6.31,3.62,0,0-5.72,8.38-5.14,14.73.58,6.35,2.46,8.26,5.82,8.86ZM337.54,261.83c-10.88.66-21.63,6.97-22.11,5.86,0-.02,0-.05-.01-.07-.63-1.95,6.2-6.51,16.08-8.32,1.03-.19,2.09-.36,3.18-.48,15.29-1.7,26.14.2,33.06,2.36,2.03.64,3.73,1.29,5.09,1.89,2.35,1.04,3.71,1.87,4.13,2.1.2-.12.42-.19.64-.22.16-.02.33-.04.49-.02.34.03.68.13,1,.27.64.27,1.19.65,1.49.9,3.53,1.13,11.67,3.84,14.55,5.71,3.72,2.42,10.25,6.51,12.25,7.42,1.53.7,3.34,2.66,4.82,4.84,2.96,1.8,10.62,6.6,16.69,11.82,5.7,4.89,9.82,10.75,12.71,16.35-2.38-6.79-8.24-18.86-30.31-32.63-5-3.12-15.17-10.93-20.69-12.63s-20.28-8.65-28.35-10.35c-8.07-1.7-22.68-1.43-31.17.27-8.49,1.7-21.78,7.34-29.42,16.26-7.64,8.92-11.12,17.38-11.68,24.63-.66,8.5.82,14.86,2.66,19.3-.1-.39-.21-.77-.3-1.17-4.73-19.65,8.63-37.34,10.46-34.24.4.67.26,2.31-.75,5.15-.69,1.95-1.07,3.91-1.21,5.81,1.14-3.06,2.61-6.15,4.45-9.25,8.27-13.87,24.99-20.93,40.58-21.76-2.66,0-5.41.06-8.33.24ZM373.73,303.65c.2-3.25.85-7.16,1.45-9.69.99-4.11,6.97-13.64,6.97-13.64-.07-.84-.25-1.77-.49-2.74-.05-.18-.09-.36-.14-.54,0,0,0,0,0,0-.61-2.22-1.55-4.59-2.45-6.61-.23-.51-.45-1-.67-1.46.12.43.25.91.38,1.42.56,2.12,1.18,4.77,1.55,7.25.01.08.02.15.03.23.02.15.04.29.06.44.07.51.12,1,.16,1.48,0,0-6.25,11.21-7.23,15.32-.53,2.22-.18,5.53.39,8.54ZM371.66,321.93c1.54-2.5,3.35-5.99,3.9-9.22-.43-.69-.76-1.69-1.21-3.12-.68.12-3.04.47-4.59-.46-1.83-1.09-1.95-3.82-1.87-5.85.08-2.03-.18-5.3.74-8.97.48-1.92.99-3.37,1.63-4.77,2.01-2.97,5.01-7.02,5.92-7.62.96-.64.47-.84.27-.89-.04-.01-.07-.02-.07-.02-.5.41-1.03.86-1.56,1.35-4.04,3.7-8.58,9.24-8.58,9.24h.06c-9.53,10.86-15.39,25.95-17.69,32.67-.74,2.17-1.11,3.47-1.11,3.47,0,0-.12.5-.31,1.3.06-.15.12-.29.18-.43,2.86-6.99,5.63-13.21,6.59-13.67,1.41-.67,6.65,4.16,11.69,6.37,2.1.92,4.59.8,6.01.62ZM676.18,238.22c-.98-1.36-1.91-2.46-2.76-3.17-2.56-2.16-8.96-6.06-15.28-10.16l8.1,9.45s2.97,3.65-1.08,7.43c-16.15,15.07-56.25,39.94-80.28,55.03-7.84,3.78-15.38,11.86-17.46,15.42-4.41,7.56-1.13,5.8-1.13,5.8,0,0,1.14-1.36,2.7-3.07,1.1-1.21,2.42-2.58,3.7-3.77.52-.49,1.04-.95,1.54-1.35,2.36-1.93,8.42-4.65,11.55-5.99,0,0,.01,0,.01,0,1.76.95,44.17,23.61,62.58,41.47,3.36,3.26,9.77,8.84,15.41,14.48-.38-1.32-.4-2.73-1.47-4.14-3.17-4.18-8.85-8.65-13.15-12.8-12.74-12.31-59.03-40.34-59.03-40.34,0,0-3.79-3.03-2.09-4.31,1.69-1.27,52.62-31.91,88.14-59.96ZM373.18,331.32c-2.64-2.17-5.34-2.3-10.57,1.58-2.24,1.67-4.01,4.47-5.31,7.14l16.09,4.03c2.71-5.47,1.85-11.06-.21-12.75ZM828.84,256.58c-4.3-5.5-13.21-4.2-13.21-4.2l-8.91.3s-1.73-5.88-4.28-7.57c-.34-.23-1.07-.48-2.06-.74.85.53,1.62,1.27,1.99,2.01,1.13,2.22,2.53,5.86.71,7.43,3.55.62,9.41,1.4,5.42,1.76,0,0-35.02-1.22-38.43-1.43-3.41-.21-8.75-2.77-9.18-4.7-.43-1.92,8.32,1.49,9.82,1.49.63,0,5.64.34,11.46.78,1.61-.28,3.47-.46,5.43-.33,0,0,4.61.23,7.77.23s5.08-.88,4.2-4.55c-.88-3.68-8.06-4.2-8.06-4.2-.07-.09-.11-.16-.15-.24-1.56-.26-3.18-.53-4.8-.79.31.32-.77.48-4.26.38,0,0-7.05.35-11.99-.71-4.94-1.06-8.47-5.64-14.82-5.64h-13.76s-.12-.09-.22-.23c-4.73.38-10.76-1.16-11.58-1.37-.13.34-.32.54-.57.56,0,0-8.21-1.05-10.94-4.21-2.74-3.16-8-10.73-8.63-15.57-.63-4.84,6.52,10.1,9.68,11.79,3.16,1.68-2.1-25.89-6.52-33.25-4.42-7.37-6.52-10.31-6.52-10.31,0,0-4.84-8.42-9.26-11.15-2.21-1.37-4.89-2-7.02-2.29-2.13-.29-2.39-1.87.53-2.05,1.21-.07,2.9.03,4.81.4,6.52,1.26,12.23,6.68,13.91,10.05,1.68,3.37,3.82,5.04,6.97,9.88,3.16,4.84,7.48,14.84,9.59,21.79.59,1.94,1.31,4.73,1.99,7.75-1.15-7.6-2.9-16.21-5.45-22.15-3.68-8.58-11.19-19.53-17.56-24.2-6.37-4.67-9.03-5.12-14.97-5.54-5.94-.42-18.45,2.26-26.52,3.96-8.07,1.7-24.57,12.66-31.36,14.36-3.8.95-9.06,5.36-13.49,9.58.14-.1.27-.19.42-.3,6.5-4.55,17.91-7.22,25.13-10.96,7.22-3.74,28.87-16.57,23.26-8.82,0,0-10.96,8.02-16.31,14.44-5.35,6.42-11.76,1.87-19.52,4.54-7.75,2.67-19.78,9.09-19.78,9.09l-9.76,5.67c-13.85,8.72-33.6,17.05-33.6,17.05-29.34.64-50.95,19.67-58.92,24.49-2.61,3.04-7.73,8.15-12.13,12.92.01.03.03.05.04.07,0,0-25.72,28.72-21.62,73.34,0,0-.75,1.71-1.95-.94-1.24-2.73-2.92-9.95-2.66-18.55,0-.16.02-.35.03-.52-5.82,1.91-18.76,3.93-26.43,4.41,2.41,6.7,2.94,11.98,2.31,13.03-.11.18-.21.23-.32.2-.43-.1-.88-1.78-1.51-4.28-.39-1.56-.78-4.68-2.42-8.86-.36-.91-.77-1.86-1.26-2.87-3.54-7.28-10.89-16.93-27.07-27.08-4.25-2.4-9.85-5.7-11.66-6.42-1.76-.7-7.33-3.4-11.38-5.39-.14-.02-.27-.04-.41-.05l-.26-.27-.33-.35-2.04-2.15-2.02-2.13-3-3.15,2.05,2.75,2.05,2.74.79,1.06.58.78.1.13s.24.16.61.42c.44.31,1.07.77,1.76,1.31,1.18.92,2.52,2.06,3.36,3.1,1.76,2.17,5.47,8.92,5.94,14.08.23,2.6.66,8.4-4.53,14.18-5.19,5.79-11.22,6.01-13.88,6.24-1.07.09-2.14-.3-3.09-.84-1.2,1.46-2.67,3.63-3.72,6.36l15.12,7.72s2.82,4.15,5.22,5.37c1.53.78,4.32,1.24,6.14,1.47,1.04.13,1.01.59.05,1.07-1.1.54-2.46,1.16-3.24,1.36-1.46.37-1.23,3.03-3.2,2.83-1.96-.21-4.23-1.69-4.23-1.69,0,0-.88-.45.62,1.59.24.32.46.6.67.86.96.54,2.4,1.02,2.86,1.26.63.32,3.62-.86,3.75-1.43.13-.57-.05-2.09.97-2.53,1.02-.44,5.16-2.94,6-4.58.84-1.64-.6-4.44-1.02-7.05-.42-2.6,1.93-3.79,1.93-3.79-1.24-3.5-6.7-2.15-6.38-3.1.33-.95,2.16-3.17,6.36-.87,2.12,1.16,3.19,3.43,3.19,3.43,0,0,3.49,6.31,5.34,11.69.52-.87.97-1.62,1.19-1.91.51-.69,6.27-4.88,6.27-4.88,0,0,1.91-6.01,4.5-2.98,0,0,2.3,1.17-1.1,3.74-.91.69-3.55,5.45-4.07,6.78-.52,1.33-2.38,5.13-2.58,5.83-.2.7-4.08,6.9-4.34,7.73-.03.08-.07.18-.12.28.12.15.26.3.43.46,1.63,1.52,3.59-.51,5.18-1.94,1.15-1.03,4.09-6.53,5.36-9.24.23-.48,1.39-2.77,3.28-1.84.94.46.94,2.82.63,4.6-.38,2.16-2.52,3.81-2.14,7.11.23,2.02,1.04,4.77,2.04,6.58l2.99.58c.29-.58.73-1.01.73-1.01,0,0,4.97.18,8.79-1.63,1.98-3.21,3.78-6.29,4.43-7.77.06-.13.08-.29.13-.43.19-4.8-.98-9.13-.06-9.74.09-.06.18-.09.31-.08,1.77.16,22.83,14.72,25.73,13.59,1.09-.42,1.43-1.82,1.56-2.88.21-1.76,1.34-1.86,1.87-.93,2.03,3.6,7.48,14.28,7.48,14.28-1.79,2.01-13.9,2.16-26.23,1.48l14.22,2.9s3.62,4.52,11.46,6.37c37.27,8.79,47.56-.66,48.46-.74,30.53-2.76,26.35,8.09,60.1.91,5-1.06,53.63,2.8,53.63,2.8,12.31,4.25,30.57,8.07,30.57,8.07l-4.97-9.23c-2.67.06-7.38-1.28-9.82-2.88-10.22-6.76-25.22-21.42-37.41-27.52-16.78-8.39-39.56-8.39-39.56-8.39-6.69.42-10.85,4.12-13.31,7.55-.27,8.72-1.01,16.02-2.67,17.22-4.4,3.2-6.39,2.8-4.4-5.59,2-8.39-2.8-22.78-6.39-29.17s-4.8-15.99-3.2-25.58c1.6-9.59,13.99-51.55,21.18-49.55,7.19,2-4.4,18.38,9.59,14.39,12.39-3.54,55.27-36.08,64.94-43.49-6.47-4.69-10.48-8.74-5.62-9.66,0,0,15.45,12.58,30.84,20.27,0,0,9.97,19.19,14.63,29.03.19.16.43.49.71,1.04,1.04,2.07,4.09,3.79,7.39,5.56-.43-1.47-.16-3.58,2.28-6.4,5.4-6.23,9.55-9.03,13.49-8.72,3.94.31,13.39,1.45,18.16-.21,4.77-1.66,7.89-7.99,17.44-7.47,0,0,4.05-.52,6.64,1.45,2.6,1.97,2.28,1.87.52,3.53-1.76,1.66-6.44,3.53-4.98,6.54,1.45,3.01,9.44,4.46,7.47,7.58-1.97,3.11-11.11,3.32-9.86,8.51,1.25,5.19,10.9,5.92,7.89,9.44-3.01,3.53-8.41,2.39-8.93,6.64-.14,1.15-.19,2.06-.2,2.8,5.24,1.69,10,2.76,13.63,2.77,3.09,0,14.55-1.43,18.08-1.87,3.53-.44,16.69-1.85,21.33-3.62,4.64-1.77,10.5-1.36,12.27-5.55.58-1.38.73-2.25.67-2.81-1.35.21-2.75.42-4.21.76-2.87.66-11.49,1.39-14.14,1.39s-21.21,0-23.64.88c-2.43.88-7.95,3.31-8.62,1.99-.66-1.33,5.97-3.53,7.95-3.98,1.99-.44,25.19-2.21,28.28-2.43,3.09-.22,14.8-1.33,17.45-2.21s6.85-1.55,7.95-4.2c.92-2.2,1.4-5.16-1.45-6.68-5.28.22-16.17.77-19.31,1.59-4.2,1.1-13.48,1.1-17.67,1.33-4.2.22-12.15,0-14.8-.22-2.65-.22-7.73,1.1-7.73-.66s-.22-2.87,2.87-2.65c3.09.22,11.27,1.99,15.24,1.77,3.98-.22,17.45-.88,21.21-1.1,3.76-.22,14.58-.66,16.57-1.33,1.99-.66,2.21-1.55,2.65-3.53.44-1.99-1.33-4.42-1.33-4.42,0,0-1.14-2.61,4.86,1.77,1.52,1.1,2.73,2.74,2.85,4.23.61-1.24.8-2.71-.32-4.15ZM521.66,283.08s-5.41,20.45-15.64,29.47c-10.23,9.02-24.66,15.04-24.66,15.04,0,0-2.41-8.42,4.81-19.25,7.22-10.83,16.84-11.43,23.46-20.45,6.62-9.02,16.24-14.44,12.03-4.81ZM788.09,292.74c-2.65.44-29.61,5.74-33.36,5.08-3.76-.66-7.07-1.33-11.27-3.76s-35.13-16.57-37.34-17.23c-2.21-.66-11.05-5.08-14.14-10.6-.37-.66-.69-1.3-.96-1.89-.34-.33-.7-.79-1.05-1.39-.15-.26-.31-.55-.47-.84,1.23,3.81,2.38,7.68,5.25,10.27,4.25,3.82,26.15,14.35,31.67,16.9s17.26,9.69,26,11.82c3.4.83,35.58-7.57,39.82-7.57s19.11-3.4,22.5-5.52c.72-.45,1.19-1.18,1.5-2.04-1.59,1.48-3.87,1.92-3.87,1.92,0,0-21.65,4.42-24.3,4.86ZM826.75,271.75c-2.86,3.82-5.54,4.98-7.78,5.66,3.44-.59,9-1.89,9.87-4.21.56-1.5.16-3.49-.46-5.24-.13,1.11-.58,2.39-1.62,3.79Z" />
    <g>
      <path class="st1"
        d="L753.23,366.55c26.37,1.37,34.88-4.79,34.88-4.79-40.33,2-51.14-7.86-79.2-10.27-28.06-2.41-34.71,6.66-34.71,6.66,41.16-6.61,52.66,7.02,79.03,8.39Z" />
      <path class="st1"
        d="M502.85,396.14c-43.94-1.02-57.82,9.83-57.82,9.83,67.01-5.38,85.45,10.78,132.23,13.48,46.79,2.7,57.45-13.01,57.45-13.01-68.18,13.24-87.93-9.3-131.87-10.31Z" />
      <path class="st1"
        d="M789.47,406.29c-1.32-.06-2.62-.14-3.89-.23-27.95-2.11-42.56-12.6-67.11-15.14,21.82-1.61,27.8-9.06,27.8-9.06-62.35,8.26-79.61-11.46-119.5-14.15-39.89-2.68-52.83,5.83-52.83,5.83,48.29-1.36,68.56,7.32,95.92,13.09,6.35-.47,14.53-.38,24.88.94,4.65.59,8.87,1.52,12.86,2.63-5.22-.17-9.83-.09-13.86.16-7.44.48-12.92,1.53-16.8,2.61-5.49,1.53-7.75,3.09-7.75,3.09,9.86-.27,18.37-.01,25.92.59,33.52,2.7,48.21,12.48,78.42,15.9.02,0,.05,0,.07,0,37.07,4.18,46.51-7.98,46.51-7.98-11.92,1.67-21.92,2.08-30.65,1.69Z" />
      <path class="st1"
        d="M501.99,378.85c2.77.03,5.33-.05,7.7-.22,22.48-1.63,27.53-11.41,27.53-11.41-27.3,7.95-42.27,3.95-56.94.44,17.52-2.7,23.11-8.62,23.11-8.62-90.29,5.74-113.72-22.82-170.91-30.06-57.2-7.24-76.43,3.27-76.43,3.27,84.22,2.97,108.31,22.42,163.53,32.46,5.47-1.21,12.86-2.07,22.64-1.8,4.44.12,8.47.67,12.3,1.45-8.52.3-15.15,1.36-20.22,2.66-2.96.76-5.4,1.6-7.37,2.42-5.22,2.17-7.21,4.2-7.21,4.2,10.67-1.64,19.37-2.1,26.92-1.89,21.7.62,33.81,6.86,55.36,7.1Z" />
    </g>
    <g>
      <path class="st0"
        d="M344.13,487.31h14.6c13.12-.26,18.42,5.13,18.25,18.42v25.2c.26,13.3-5.13,18.68-18.25,18.42h-14.6v-62.05ZM358.99,541.62c6.6,0,8.34-2.61,8.43-12.34v-21.9c-.09-9.73-1.83-12.34-8.43-12.34h-5.3v46.58h5.3Z" />
      <path class="st0"
        d="M398.27,487.31v43.45c0,4.26.26,6.43.96,8,1.13,2.61,2.78,3.65,5.74,3.65,3.65,0,5.39-1.13,6.52-4.17.52-1.48.7-3.65.7-7.47v-43.45h9.56v43.45c0,7.47-.61,10.6-2.78,13.64-2.95,4.08-6.95,5.82-13.73,5.82-7.21,0-11.56-2.09-14.34-6.78-1.65-2.78-2.17-5.82-2.17-12.69v-43.45h9.56Z" />
      <path class="st0" d="M434.42,487.31h9.47l16.08,42.41v-42.41h8.95v62.05h-9.04l-16.51-42.93v42.93h-8.95v-62.05Z" />
      <path class="st0"
        d="M498.03,515.9h16.25v11.82c0,8.08-.87,12.51-3.04,15.9-2.87,4.52-7.3,6.6-13.82,6.6s-11.12-2.17-13.9-6.17c-2.09-3.04-2.95-7.47-2.95-14.6v-22.07c0-7.91,1.04-12.51,3.65-15.64,2.78-3.48,7.13-5.21,12.77-5.21,6.78,0,11.56,2.69,14.16,8,1.22,2.52,1.65,5.3,1.74,10.17h-8.78c-.35-7.65-2.09-10.34-6.87-10.34-5.3,0-7.13,3.39-7.13,13.64v20.86c0,9.99,1.91,13.56,7.3,13.56s7.39-3.65,7.39-12.69v-6.34h-6.78v-7.47Z" />
      <path class="st0"
        d="M533.23,536.49l-2.78,12.86h-10.34l16.86-62.05h7.99l16.77,62.05h-10.34l-2.69-12.86h-15.47ZM540.96,500.52l-6.08,28.24h12.08l-6-28.24Z" />
      <path class="st0" d="M567.9,487.31h9.47l16.08,42.41v-42.41h8.95v62.05h-9.04l-16.51-42.93v42.93h-8.95v-62.05Z" />
      <path class="st0" d="M615.26,487.31h9.47l16.08,42.41v-42.41h8.95v62.05h-9.04l-16.51-42.93v42.93h-8.95v-62.05Z" />
      <path class="st0"
        d="M661.4,506.25c0-14.08,4.87-19.81,16.95-19.81s16.95,5.74,16.95,19.81v24.16c0,14.08-4.87,19.81-16.95,19.81s-16.95-5.74-16.95-19.81v-24.16ZM685.73,507.12c0-9.56-1.91-12.86-7.39-12.86s-7.39,3.3-7.39,12.86v22.42c0,9.56,1.91,12.86,7.39,12.86s7.39-3.3,7.39-12.86v-22.42Z" />
      <path class="st0" d="M707.2,487.31h9.47l16.08,42.41v-42.41h8.95v62.05h-9.04l-16.51-42.93v42.93h-8.95v-62.05Z" />
      <path class="st0"
        d="M178.44,626.67c.24,9.58,2.48,13.25,8.28,13.25,6.15,0,8.52-3.08,8.52-11.12,0-3.43-.71-5.68-2.13-7.22-1.77-1.77-1.89-1.77-10.41-4.61-13.49-4.26-18.81-11.24-18.81-24.49,0-16.68,7.69-25.32,22.6-25.32,9.94,0,16.56,3.55,20.47,10.88,1.89,3.67,2.6,7.93,2.84,15.02h-15.97c-.71-9.35-2.13-11.83-6.74-11.83-4.38,0-6.51,3.43-6.51,10.53,0,6.03,2.48,8.64,10.77,11.36,8.4,2.84,10.77,3.9,13.84,6.39,4.61,3.67,6.74,9.58,6.74,18.57,0,17.39-8.28,25.91-24.96,25.91-10.53,0-17.75-3.79-21.65-11.59-1.89-3.67-2.6-8.04-2.84-15.73h15.97Z" />
      <path class="st0"
        d="M218.67,568.23h17.51l7.1,55.13,11.71-55.13h13.72l11.71,55.13,7.22-55.13h17.39l-15.73,84.47h-15.85l-11.59-52.05-11.59,52.05h-15.85l-15.73-84.47Z" />
      <path class="st0" d="M316.38,568.23h17.51v84.47h-17.51v-84.47Z" />
      <path class="st0"
        d="M349.39,568.23h16.09l15.26,43.18,15.14-43.18h16.21v84.47h-16.68v-46.26l-9.11,27.92h-11.12l-9.11-27.92v46.26h-16.68v-84.47Z" />
      <path class="st0"
        d="M427.58,568.23h16.09l15.26,43.18,15.14-43.18h16.21v84.47h-16.68v-46.26l-9.11,27.92h-11.12l-9.11-27.92v46.26h-16.68v-84.47Z" />
      <path class="st0" d="M505.78,568.23h17.51v84.47h-17.51v-84.47Z" />
      <path class="st0"
        d="M538.79,568.23h17.51l18.69,49.57v-49.57h16.33v84.47h-16.56l-19.64-50.51v50.51h-16.33v-84.47Z" />
      <path class="st0"
        d="M631.42,605.61h25.32v14.55c0,12.3-1.18,18.93-4.14,23.78-4.26,6.86-11,10.06-21.53,10.06-9.82,0-17.04-2.96-21.29-8.87-3.31-4.5-4.61-10.88-4.61-21.89v-25.32c0-12.07,1.54-18.69,5.68-23.31,4.38-4.97,10.88-7.45,19.87-7.45,10.29,0,17.27,3.55,21.18,10.88,2.01,3.67,2.84,7.93,3.08,15.02h-15.97c-.83-9.35-2.48-11.83-7.81-11.83-6.74,0-8.52,3.79-8.52,17.98v22.71c0,6.27.35,10.41,1.18,12.9,1.06,3.31,3.67,5.09,7.33,5.09,6.39,0,8.28-3.79,8.28-15.97v-4.97h-8.04v-13.37Z" />
      <path class="st0"
        d="M739.78,626.67c-.24,8.64-1.3,13.49-4.14,17.75-4.14,6.51-10.88,9.58-20.58,9.58s-16.44-2.96-20.58-8.87c-3.08-4.5-4.38-11-4.38-21.89v-25.32c0-12.07,1.54-18.69,5.44-23.31,4.14-4.97,10.41-7.45,19.05-7.45,10.29,0,17.27,3.67,21.18,10.88,2.01,3.67,2.84,7.93,3.08,15.02h-15.97c-.83-9.35-2.48-11.83-7.69-11.83-6.03,0-7.57,3.67-7.57,17.98v22.71c0,14.31,1.66,17.98,7.93,17.98,5.68,0,8.04-3.79,8.28-13.25h15.97Z" />
      <path class="st0" d="M751.14,568.23h17.51v70.15h26.03v14.31h-43.54v-84.47Z" />
      <path class="st0"
        d="M822.83,568.23v56.9c0,11.95,1.42,14.79,7.45,14.79,6.62,0,8.04-2.48,8.04-14.79v-56.9h17.51v56.9c0,11.24-.95,15.97-4.14,20.35-4.38,6.03-10.53,8.52-21.06,8.52-11.24,0-17.86-2.96-22-9.94-2.48-4.02-3.31-8.64-3.31-18.93v-56.9h17.51Z" />
      <path class="st0"
        d="M871.1,568.23h24.73c9.58,0,14.55,1.42,18.46,5.21,3.67,3.67,5.8,10.29,5.8,17.98,0,8.99-2.13,14.31-6.86,17.15,5.44,3.43,7.93,10.17,7.93,20.82,0,8.4-2.25,15.02-6.27,18.81-3.55,3.31-7.57,4.5-15.62,4.5h-28.16v-84.47ZM894.52,602.77c5.8,0,8.04-2.84,8.04-10.06,0-7.93-2.01-10.53-8.04-10.53h-5.92v20.58h5.92ZM894.64,638.74c6.98,0,8.99-2.37,8.99-10.76s-1.89-11.24-8.4-11.24h-6.62v22h6.03Z" />
    </g>
  </svg>